PathFileType	4	(X/Y/Z)	OpenSim_Sub08_EMGBaseline_Accel.trc
DataRate	CameraRate	NumFrames	NumMarkers	Units	OrigDataRate	OrigDataStartFrame	OrigNumFrames
100	100	31	8	m	100	832	6654
Frame#	Time	torso_imu_offset_imu	pelvis_imu_offset_imu	tibia_r_imu_offset_imu	femur_r_imu_offset_imu	tibia_l_imu_offset_imu	femur_l_imu_offset_imu	toes_r_imu_offset_imu	toes_l_imu_offset_imu
				X1	Y1	Z1	X2	Y2	Z2	X3	Y3	Z3	X4	Y4	Z4	X5	Y5	Z5	X6	Y6	Z6	X7	Y7	Z7	X8		Y8	Z8	

832	8.31000000	9.20218191	0.02978488	6.84893450	9.93253340	-0.15727780	3.35351936	11.02800110	-2.71475030	0.00649897	8.44507982	-6.61381818	1.36106935	10.22132775	-0.78933064	-0.94556307	9.38491391	0.70040278	-2.83526228	12.67931373	0.60169285	4.64255229	6.24510977	0.84016723	10.39588246
833	8.32000000	9.28089676	0.01614949	6.93123419	9.86381151	-0.07398985	3.44201750	11.47977580	-3.94239452	0.20110840	8.67718238	-6.29732100	1.20088952	9.85856807	-0.77353963	-0.84768261	9.28588465	0.63840169	-2.79394207	11.49003036	2.15019899	4.11618717	6.15766833	0.77312959	10.44414832
834	8.33000000	9.32796092	0.05864092	6.99394140	9.70977079	0.07395524	3.57987703	11.36760110	-3.37152509	-0.59973075	9.23532425	-5.71950631	1.34952145	9.78392725	-1.55903750	-0.97855473	9.43198661	0.73085584	-2.66462682	11.68679913	4.75495853	4.16222728	5.88030822	0.53716005	10.73804667
835	8.34000000	9.37145991	0.11748080	7.04322542	9.48548623	0.20953480	3.46799720	10.50492865	-1.72265465	-0.59333898	9.66598478	-4.93234805	1.71593107	10.05042019	-2.44674216	-0.53475436	9.49751210	0.82347956	-2.60166532	12.81602095	4.39765639	3.33002329	6.13165304	0.46587555	10.56384199
836	8.35000000	9.40414741	0.12030835	6.95735201	9.40954092	0.37671530	3.34908528	9.48801645	-0.55904685	1.01033902	9.66263979	-4.26677689	1.96211507	10.04001432	-2.54683112	-0.60189096	9.80059961	0.79537948	-2.49904684	12.13975113	1.74804136	1.61128264	6.05773676	0.66520563	10.75665849
837	8.36000000	9.41563358	0.15493739	6.90180469	9.44055005	0.41521500	3.32002324	8.36512068	0.68702876	0.82240710	9.42448478	-3.87497621	2.23007885	10.27041182	-2.50313457	-0.70964696	10.08826754	0.86641109	-2.42050192	12.82336266	2.23083330	1.23173322	6.05579020	0.49021468	10.62089000
838	8.37000000	9.40045170	0.19581705	6.85826543	9.47215877	0.25051190	3.19398267	7.39458262	2.66818426	0.70834706	9.26619382	-3.98180502	2.47881626	10.60073038	-2.15524276	-0.36318334	10.14681128	1.12152876	-2.32763884	13.70233332	3.31973955	1.43668962	5.86922031	0.87032255	10.87016262
839	8.38000000	9.40888898	0.28186364	6.74356550	9.57037766	-0.07763503	3.03290162	6.98679767	3.63616938	0.48097527	9.28078809	-4.67206802	2.59181702	10.70147307	-1.47254251	-0.36530926	10.37006591	0.89411784	-2.18461978	12.34840530	3.40236070	0.64095932	5.64523662	0.91204931	11.08425804
840	8.39000000	9.49907962	0.36596660	6.66356248	9.65704565	-0.50093354	2.90063618	7.32631291	3.28472967	-0.08906175	9.13126744	-5.56194094	2.39613848	10.73135966	-1.29010721	-0.38564109	10.35862355	0.65356748	-2.18721787	10.76571340	2.69527266	-0.20882773	5.93382001	0.56834809	10.73478528
841	8.40000000	9.56205780	0.40879510	6.65501692	9.75126313	-0.95056152	2.71747511	8.04087343	2.00669862	-0.52692236	8.74811536	-6.31790824	1.89111260	10.65150244	-1.62108688	-0.19833880	10.27009155	0.58536759	-2.16223078	10.69203883	1.82270658	0.06239978	5.99638918	0.68158353	10.67327980
842	8.41000000	9.51348199	0.42930893	6.56047555	9.75903040	-1.34508320	2.53732040	8.50025346	0.38719098	-0.45863673	8.22897889	-6.75294386	1.35341981	10.47535637	-1.76629088	-0.08626681	10.27091347	0.64527098	-2.06606835	10.99411495	0.07302855	0.70803456	5.81916234	0.77536806	10.74999057
843	8.42000000	9.37596078	0.41762825	6.46589950	9.73383055	-1.61041691	2.22506374	8.43408481	-0.70671793	-0.12193971	7.52470864	-6.67716243	1.01584692	10.31670606	-1.78919394	-0.12215963	10.15394394	0.79573446	-1.93718954	11.94204460	-0.57279479	1.25310622	5.57749293	0.82333068	10.90053080
844	8.43000000	9.21687806	0.40583704	6.37069070	9.73661819	-1.70952514	2.04401691	8.04403058	-1.36550155	-0.59894952	7.08419387	-6.12895274	1.08774576	10.23766926	-1.72277058	-0.21372768	9.90582391	0.95155903	-1.79779743	2.13610260	-5.48917427	7.91052354	5.84405885	1.00879859	10.58586044
845	8.44000000	9.16589851	0.40682284	6.26150905	9.78063423	-1.58932972	2.08370680	8.54731473	-1.65190168	-0.77837431	7.57016924	-5.17348783	1.56977354	10.11435823	-1.70238923	-0.25639683	9.78865063	1.14228238	-1.79257351	-4.74932482	-9.30385845	14.16250044	5.93184415	1.19982694	10.48039007
846	8.45000000	9.42081139	0.43487881	6.40064366	9.86154006	-1.09806242	2.13937931	11.21769629	-1.77391993	1.62402328	9.21774044	-4.13693408	2.03813390	10.27775071	-1.87704435	-0.55560222	9.68876805	1.45033453	-1.77800532	-2.00483159	-8.18946202	9.80391172	6.06552848	1.03783151	10.20721440
847	8.46000000	9.82522369	0.35496869	6.44086471	9.90392825	-0.17017013	2.36370775	14.34553103	-3.71292456	4.38347415	10.84580109	-2.93903545	2.36197507	10.50705197	-2.12571067	-0.45101703	9.68509499	1.67938182	-1.53716080	-7.00005961	-7.71345616	5.44552573	5.71510452	1.35306505	10.41389266
848	8.47000000	9.93202181	0.20634615	6.47348964	9.97854784	0.68821736	2.54981158	13.90940588	-7.51512787	3.87536659	10.81039913	-1.43133095	2.95203685	10.40507331	-2.35586714	0.03213882	9.94317226	1.84335151	-1.48077063	2.85726739	0.26472569	8.03136125	5.68653620	1.65173814	10.42563815
849	8.48000000	9.53681736	0.24026495	6.42773444	10.18178856	1.27549946	2.52015637	9.70419541	-8.23635162	3.07365680	9.93861143	-0.29695801	3.45088074	10.31318342	-2.30454446	0.26983861	10.20712855	1.87724028	-1.61527502	9.04366293	-0.97654923	11.08827573	6.00156882	1.62484856	10.12206061
850	8.49000000	9.14915939	0.27685648	6.44780686	10.27224042	1.58895193	2.59417603	6.62576672	-6.34749543	2.91367834	10.15455032	-0.03665852	3.35055423	10.60053684	-1.90514552	0.41647873	9.99743548	1.98002662	-1.61278717	4.31858225	-2.32931116	8.07652313	6.16788375	1.41626397	9.92997676
851	8.50000000	9.57613341	0.22087522	6.48040875	10.14923964	1.68620873	3.12487390	7.97531867	-5.63447366	2.82764840	11.49995184	-0.38206433	2.87644681	10.85985097	-1.45918786	0.61381225	9.71449001	2.05489339	-1.59616167	1.10282137	4.37832211	10.92165837	6.17849940	1.19672494	9.84299236
852	8.51000000	10.11340059	0.14400689	6.47736500	9.94526694	1.56316886	3.75960645	11.80832560	-4.23121319	4.56342215	12.27448603	-1.71891935	2.63612079	10.91436581	-1.19880086	0.86081384	9.88384546	2.23199329	-1.64173966	4.05752101	5.24604631	11.78473571	5.71450039	1.22188733	10.21611890
853	8.52000000	10.07897672	0.13161224	6.49999907	9.69870840	1.26869419	4.00788814	13.56874962	-1.58267534	5.17106279	11.63247371	-3.67932197	2.65697290	10.99399552	-1.00328413	0.98959571	10.07034706	2.52034313	-1.29373012	4.39590516	1.80795506	10.54564920	6.12235956	1.15204907	9.83703217
854	8.53000000	9.87048352	0.19169656	6.49896369	9.45899277	0.87217729	4.10794219	11.97170151	0.25379172	2.87779755	10.62435356	-4.76550475	2.28502486	11.24123826	-1.32622080	1.35396253	10.18168477	2.48001085	-0.89610159	3.68865975	-0.98345703	10.28068656	6.49045192	1.10423760	9.44017260
855	8.54000000	9.81591857	0.24037076	6.49665172	9.35572333	0.41634307	4.29817612	9.63557779	0.22018826	0.47574877	10.00411713	-4.21700022	1.55406181	11.72918256	-2.35153416	1.84068817	10.21442887	2.24294845	-0.68814094	6.16167654	-4.74137679	9.40648775	6.11192197	0.83199272	9.65389654
856	8.55000000	9.79614404	0.27630786	6.45779341	9.18926425	-0.15106509	4.56491855	8.62024662	-0.70281901	0.32698195	9.51808904	-2.80924130	0.88672400	12.51918032	-2.88886332	1.00043520	10.27797345	1.73062315	-0.67230865	8.85070810	-7.05762435	8.26901988	6.37546847	0.34546454	10.00730879
857	8.56000000	9.67326669	0.23493799	6.40387895	8.99213710	-0.84672144	4.53677904	8.84596904	-1.99352362	-0.35770182	9.15311830	-1.73722497	0.42160744	13.78150258	-1.15547457	0.07492004	10.31334329	0.95966291	-0.94353786	8.68741204	-5.82496190	8.68214382	6.86799128	0.67432397	10.01902401
858	8.57000000	9.56110382	0.15837996	6.33846325	8.96365348	-1.46208694	4.34460775	9.88795447	-3.01858613	-2.27818156	8.99460487	-1.26765550	0.28160762	14.31261577	1.97379369	0.39706932	9.72067670	0.15544836	-0.96675891	7.07872988	-2.71734967	8.95438728	8.18725148	2.08475660	9.87155855
859	8.58000000	9.33680802	0.11286177	6.17921782	8.91895998	-1.74464774	4.38114740	10.57504020	-3.26060709	-2.55079397	9.06753845	-0.93804385	0.66437814	13.21804511	4.08054883	0.27414171	8.83613445	-0.38164391	-0.71347541	6.90050583	-2.26685088	9.22993359	10.14724231	3.40655212	10.31734564
860	8.59000000	8.85663628	0.12655079	6.03815090	8.74539500	-1.66091145	4.58374767	9.73815741	-2.56679536	-1.10488148	9.18616844	-0.60967739	1.59994179	11.99474327	4.28183811	-0.03484935	8.39252172	-0.46593757	-0.43158750	11.37300884	-8.67944759	8.45522268	11.87066953	3.08799642	10.31766495
861	8.60000000	8.40945643	0.10930418	5.90929946	8.57612850	-1.32565656	4.68064884	8.10850619	-1.76662848	-0.70767041	9.34420757	-0.41619101	1.98797490	11.74624818	2.31428631	-1.06323005	8.52282095	-0.27334360	-0.21475711	7.53169984	-11.74750994	5.51122166	13.43552580	2.18808668	10.34349366
862	8.61000000	8.38174490	0.02587086	5.83910521	8.43490299	-0.88537989	4.76021997	8.22248997	-2.17527513	-1.81463844	9.22412669	-0.68465013	1.06612553	12.47986527	-0.55597089	-1.45548863	8.91687321	-0.38348158	-0.07672164	7.85708804	1.74158197	11.91564419	13.51942134	2.62825276	10.27820627
